#N canvas 2493 68 679 382 12;
#X obj 72 292 dac~;
#X obj 74 76 osc/unpackOSC;
#X floatatom 74 153 5 0 127 0 - - - 0;
#X obj 74 121 osc/routeOSC /value;
#X obj 72 230 osc~ 440;
#X obj 73 259 *~;
#X obj 74 178 tgl 25 0 empty empty empty 17 7 0 80 #00ff04 #000000
#000000 0 1;
#X obj 75 48 mrpeach/net/udpreceive 255.255.255.255 9999;
#X connect 1 0 3 0;
#X connect 2 0 6 0;
#X connect 3 0 2 0;
#X connect 4 0 5 0;
#X connect 5 0 0 0;
#X connect 6 0 5 1;
#X connect 7 0 1 0;
